<svg xmlns="http://www.w3.org/2000/svg" xmlns:xlink="http://www.w3.org/1999/xlink" width="118" zoomAndPan="magnify" viewBox="0 0 88.5 133.499994" height="178" preserveAspectRatio="xMidYMid meet" version="1.0"><defs><g/><clipPath id="394498f9ef"><path d="M 0 22.859375 L 87.347656 22.859375 L 87.347656 110.203125 L 0 110.203125 Z M 0 22.859375 " clip-rule="nonzero"/></clipPath><clipPath id="18a61a2021"><path d="M 43.671875 22.859375 C 19.554688 22.859375 0 42.410156 0 66.53125 C 0 90.652344 19.554688 110.203125 43.671875 110.203125 C 67.792969 110.203125 87.347656 90.652344 87.347656 66.53125 C 87.347656 42.410156 67.792969 22.859375 43.671875 22.859375 Z M 43.671875 22.859375 " clip-rule="nonzero"/></clipPath></defs><g clip-path="url(#394498f9ef)"><g clip-path="url(#18a61a2021)"><path fill="#0057b8" d="M 0 22.859375 L 87.347656 22.859375 L 87.347656 110.203125 L 0 110.203125 Z M 0 22.859375 " fill-opacity="1" fill-rule="nonzero"/></g></g><g fill="#ffffff" fill-opacity="1"><g transform="translate(24.507236, 93.905991)"><g><path d="M 37.109375 -14.390625 C 37.109375 -9.710938 35.425781 -6.023438 32.0625 -3.328125 C 28.695312 -0.640625 24.007812 0.703125 18 0.703125 C 12.476562 0.703125 7.585938 -0.332031 3.328125 -2.40625 L 3.328125 -12.625 C 6.828125 -11.0625 9.785156 -9.957031 12.203125 -9.3125 C 14.628906 -8.675781 16.847656 -8.359375 18.859375 -8.359375 C 21.265625 -8.359375 23.113281 -8.816406 24.40625 -9.734375 C 25.695312 -10.660156 26.34375 -12.035156 26.34375 -13.859375 C 26.34375 -14.878906 26.054688 -15.785156 25.484375 -16.578125 C 24.921875 -17.367188 24.085938 -18.128906 22.984375 -18.859375 C 21.890625 -19.585938 19.648438 -20.753906 16.265625 -22.359375 C 13.097656 -23.847656 10.722656 -25.28125 9.140625 -26.65625 C 7.554688 -28.03125 6.289062 -29.625 5.34375 -31.4375 C 4.40625 -33.257812 3.9375 -35.390625 3.9375 -37.828125 C 3.9375 -42.410156 5.488281 -46.007812 8.59375 -48.625 C 11.695312 -51.25 15.992188 -52.5625 21.484375 -52.5625 C 24.171875 -52.5625 26.738281 -52.242188 29.1875 -51.609375 C 31.632812 -50.972656 34.191406 -50.078125 36.859375 -48.921875 L 33.3125 -40.375 C 30.550781 -41.507812 28.265625 -42.300781 26.453125 -42.75 C 24.648438 -43.195312 22.875 -43.421875 21.125 -43.421875 C 19.039062 -43.421875 17.441406 -42.9375 16.328125 -41.96875 C 15.222656 -41 14.671875 -39.734375 14.671875 -38.171875 C 14.671875 -37.203125 14.894531 -36.359375 15.34375 -35.640625 C 15.789062 -34.921875 16.503906 -34.222656 17.484375 -33.546875 C 18.472656 -32.878906 20.796875 -31.671875 24.453125 -29.921875 C 29.296875 -27.597656 32.613281 -25.269531 34.40625 -22.9375 C 36.207031 -20.613281 37.109375 -17.765625 37.109375 -14.390625 Z M 37.109375 -14.390625 "/></g></g></g></svg>